<svg xmlns="http://www.w3.org/2000/svg" viewBox="0 0 2043.11 500"><defs><style>.a{fill:#e15943;}.b{fill:#2a344f;}</style></defs><title>logo</title><path class="a" d="M250,0C111.9,0,0,111.9,0,250S111.9,500,250,500,500,388.1,500,250,388.1,0,250,0ZM165.6,287.9H153.5v80.5H112.8V287.9H100v-5.5h12.8V234.7h40.7v47.7h12.1Zm76,32.6H229.5v47.9H188.8V320.5H175.9V315h12.9V201h40.7V315h12.1Zm80.3-76H309.5V368.4H268.8V244.5H256.3v-5.4h12.5V166.4h40.7v72.7h12.4Zm78.1-65H387.4V368.4H346.7V179.5H334.4V174h12.3V131.6h40.7V174H400Z"/><path class="b" d="M624.68,98.12c-3.72-4.92-7.2-7.8-13-7.8a10.79,10.79,0,0,0-10.92,11.16c0,14.28,38.4,13.8,38.4,40.44a26.27,26.27,0,0,1-26.28,26.28c-12,0-21-6.6-25.2-17.4l6.72-5.28h1.2c3.6,8.52,9.36,13,17.28,13,9,0,15.72-7.08,15.72-16.56,0-18.24-38.52-17.4-38.52-40.44,0-11.52,9.48-20.88,21.6-20.88,9.6,0,16.8,5.4,21,12.6l-6.84,4.92Z"/><path class="b" d="M663.56,82.4l.6.6v32.52h48.35V83l.61-.6h8l.6.6v82.8l-.6.6h-8l-.61-.6V124.88H664.16V165.8l-.6.6h-8l-.6-.6V83l.6-.6Z"/><path class="b" d="M750.31,82.4l.61.6v82.8l-.61.6h-8l-.61-.6V83l.61-.6Z"/><path class="b" d="M779.59,82.4l.48.48v74.28h39.12l.48.6v8.16l-.48.48H771.31l-.48-.48v-83l.48-.48Z"/><path class="b" d="M911.59,124.4c0,24.12-19.92,43.8-44.4,43.8s-44.4-19.68-44.4-43.8,19.92-43.8,44.4-43.8S911.59,100.28,911.59,124.4Zm-78.24,0a33.78,33.78,0,1,0,33.84-34.08A34,34,0,0,0,833.35,124.4Z"/><path class="b" d="M936.43,82.4l.6.6v32.52h48.36V83l.6-.6h8l.6.6v82.8l-.6.6h-8l-.6-.6V124.88H937V165.8l-.6.6h-8l-.6-.6V83l.6-.6Z"/><path class="b" d="M1079.71,82.4l.6.6v61.2c0,14.76-9,24-22.68,24-10.2,0-17.64-5.28-20.64-15.72l7.32-3.6h1.08c2,6.72,6.48,9.6,12.24,9.6,8.76,0,13.44-5.52,13.44-17.4V83l.6-.6Z"/><path class="b" d="M1129.39,82.4l.6.6,33.48,82.8-.6.6H1154l-.6-.6-9-22H1106l-8.88,22-.6.6h-8.88l-.6-.6L1120.39,83l.6-.6Zm-19.68,52.2h31.08l-15.6-39.48Z"/><path class="b" d="M1183.15,82.4l1.2.6,31.2,38.52L1246.75,83l1.2-.6h7.68l.6.6v82.8l-.6.6h-8l-.6-.6V96.32l-30.84,38H1215l-30.72-38V165.8l-.6.6h-8l-.6-.6V83l.6-.6Z"/><path class="b" d="M1324.39,82.4l.6.6v8l-.6.6h-39v23.88h29.4l.6.6v8.16l-.6.6h-29.4v32.28H1328l.6.6v8l-.6.6h-51.24l-.6-.6V83l.6-.6Z"/><path class="b" d="M1375.27,98.12c-3.72-4.92-7.2-7.8-13-7.8a10.79,10.79,0,0,0-10.92,11.16c0,14.28,38.4,13.8,38.4,40.44a26.27,26.27,0,0,1-26.28,26.28c-12,0-21-6.6-25.2-17.4l6.72-5.28h1.2c3.6,8.52,9.36,13,17.28,13,9,0,15.72-7.08,15.72-16.56,0-18.24-38.52-17.4-38.52-40.44,0-11.52,9.48-20.88,21.6-20.88,9.6,0,16.8,5.4,21,12.6l-6.84,4.92Z"/><path class="b" d="M1444.63,82.4l.6.6v32.52h48.35V83l.6-.6h8l.6.6v82.8l-.6.6h-8l-.6-.6V124.88h-48.35V165.8l-.6.6h-8l-.6-.6V83l.6-.6Z"/><path class="b" d="M1607.94,124.4c0,24.12-19.92,43.8-44.4,43.8s-44.39-19.68-44.39-43.8,19.91-43.8,44.39-43.8S1607.94,100.28,1607.94,124.4Zm-78.23,0a33.78,33.78,0,1,0,33.83-34.08A34,34,0,0,0,1529.71,124.4Z"/><path class="b" d="M1622.83,82.4l.6.6,20.88,68.64,20.15-67.44.6-.6h8.88l.6.6,20.16,67.44,21-68.64.6-.6h8.88l.6.6L1700,165.8l-.6.6h-8.88l-.6-.6-20.4-66.24-20.39,66.24-.61.6h-8.75l-.6-.6L1613.35,83l.6-.6Z"/><path class="b" d="M1746.07,82.4l.48.48v74.28h39.11l.48.6v8.16l-.48.48h-47.87l-.48-.48v-83l.48-.48Z"/><path class="b" d="M1834,82.4l.6.6,33.48,82.8-.6.6h-8.88l-.6-.6-9-22h-38.4l-8.87,22-.61.6h-8.88l-.59-.6L1825,83l.6-.6Zm-19.68,52.2h31.08l-15.6-39.48Z"/><path class="b" d="M1888.74,82.4l1.2.6L1942,151.64V83l.6-.6h8l.6.6v82.8l-.6.6h-8.52l-1.2-.6-52.08-68.64V165.8l-.6.6h-8l-.6-.6V83l.6-.6Z"/><path class="b" d="M1997.22,82.4c25.8,0,44.4,18.6,44.4,42s-18.6,42-44.4,42h-25.44l-.6-.6V83l.6-.6Zm-16.8,74.76h16.8c19.56,0,33.72-14.4,33.72-32.76s-14.16-32.76-33.72-32.76h-16.8Z"/><path class="b" d="M684.52,297c-13.4-11-30-17.4-47-17.4a56.8,56.8,0,0,0,0,113.6c17,0,33.6-6.4,47-17.4l1,1v17.6c-13,9.4-29,15-48,15-41,0-74-33-74-73s33-73,74-73c19,0,35,5.6,48,15V296Z"/><path class="b" d="M877.32,336.4c0,40.2-33.2,73-74,73s-74-32.8-74-73,33.2-73,74-73S877.32,296.2,877.32,336.4Zm-130.4,0c0,31.4,25.4,56.8,56.4,56.8s56.2-25.4,56.2-56.8-25.2-56.8-56.2-56.8S746.92,305,746.92,336.4Z"/><path class="b" d="M945.52,266.4l2,1,86.8,114.4V267.4l1-1h13.4l1,1v138l-1,1h-14.2l-2-1L945.72,291V405.4l-1,1h-13.4l-1-1v-138l1-1Z"/><path class="b" d="M1161.52,292.6c-6.2-8.2-12-13-21.6-13-10.2,0-18.2,7.8-18.2,18.6,0,23.8,64,23,64,67.4a43.79,43.79,0,0,1-43.8,43.8c-20,0-35-11-42-29l11.2-8.8h2c6,14.2,15.6,21.6,28.8,21.6,15,0,26.2-11.8,26.2-27.6,0-30.4-64.2-29-64.2-67.4,0-19.2,15.8-34.8,36-34.8,16,0,28,9,35,21l-11.4,8.2Z"/><path class="b" d="M1252.32,266.4l1,1v74.2c0,33.2,19,51.6,44.2,51.6,25.4,0,44.4-18.4,44.4-51.6V267.4l1-1h13.39l1,1v77c0,41-25.8,65-59.79,65s-59.6-24-59.6-65v-77l1-1Z"/><path class="b" d="M1431.12,266.4l.8.8V391h65.2l.8,1v13.6l-.8.8h-79.8l-.8-.8V267.2l.8-.8Z"/><path class="b" d="M1618.91,266.4l1,1v13.4l-1,1h-47.2V405.4l-1,1h-13.6l-1-1V281.8h-47.19l-1-1V267.4l1-1Z"/><path class="b" d="M1682.31,266.4l1,1v138l-1,1h-13.4l-1-1v-138l1-1Z"/><path class="b" d="M1757.71,266.4l2,1,86.8,114.4V267.4l1-1h13.4l1,1v138l-1,1h-14.2l-2-1L1757.91,291V405.4l-1,1h-13.4l-1-1v-138l1-1Z"/><path class="b" d="M2040.11,295c-13.4-11.8-32-15.4-49-15.4-33.6,0-58.4,25.2-58.4,56.8,0,32.2,25.8,56.8,59.4,56.8,11.6,0,25-2.8,35.6-9v-39h-31.6l-1-1V330.6l1-1h46l1,1v62.8c-15,11-33,16-51,16-43,0-77-32-77-73,0-40,33-73,76-73,19,0,37,3.2,50,13V294Z"/></svg>